<svg width="22" height="24" viewBox="0 0 22 24" fill="none" xmlns="http://www.w3.org/2000/svg">
<path fill-rule="evenodd" clip-rule="evenodd" d="M0.500015 3.20728H21.5L19.1667 20.9065H19.1636C19.0446 22.58 15.4351 23.9227 11 23.9227C6.56479 23.9227 2.95538 22.58 2.83634 20.9065H2.83335L0.500015 3.20728Z" fill="#E5002B"/>
<ellipse cx="10.5" cy="3.10162" rx="10.5" ry="3.10162" transform="matrix(-1 0 0 1 21.5 0.0771484)" fill="#222222"/>
<ellipse cx="9.41869" cy="2.76016" rx="9.41869" ry="2.76016" transform="matrix(-1 0 0 1 20.4189 0.760254)" fill="white"/>
<mask id="mask0_1423_16886" style="mask-type:alpha" maskUnits="userSpaceOnUse" x="2" y="12" width="18" height="12">
<path d="M2.83318 20.821C2.83318 22.534 6.48952 23.9227 10.9998 23.9227C15.5102 23.9227 19.1665 22.534 19.1665 20.821C19.1665 19.1081 14.4858 12.4836 9.97545 12.4836C5.46513 12.4836 2.83318 19.1081 2.83318 20.821Z" fill="black"/>
</mask>
<g mask="url(#mask0_1423_16886)">
<rect width="1.36585" height="9.44715" transform="matrix(-1 0 0 1 14.2153 14.4756)" fill="white"/>
<rect width="1.36585" height="9.44715" transform="matrix(-1 0 0 1 11.7114 14.4756)" fill="white"/>
<rect width="1.36585" height="9.44715" transform="matrix(-1 0 0 1 9.20703 14.4756)" fill="white"/>
</g>
</svg>
